<svg width="65" height="38" viewBox="0 0 65 38" fill="none" xmlns="http://www.w3.org/2000/svg">
<path d="M11.04 30H2.272V7.12H10.976C17.312 7.12 21.152 11.216 21.152 18.576C21.152 25.936 17.376 30 11.04 30ZM5.792 26.96H10.816C16.128 26.96 17.504 22.992 17.504 18.576C17.504 14.16 16.128 10.16 10.816 10.16H5.792V26.96ZM39.0485 21.488C39.0485 21.936 39.0485 22.416 39.0165 22.672H26.4725C26.5365 25.392 28.1365 27.92 31.3685 27.92C34.2485 27.92 35.3685 26.064 35.6565 24.976H38.8565C37.9925 28.112 35.5925 30.48 31.3045 30.48C26.1205 30.48 23.2405 26.8 23.2405 21.808C23.2405 16.688 26.3125 13.168 31.3045 13.168C36.2645 13.168 39.0485 16.432 39.0485 21.488ZM26.4725 20.208H35.7845C35.7845 17.648 33.9925 15.728 31.2085 15.728C28.5845 15.728 26.6645 17.52 26.4725 20.208ZM49.9215 13.2C54.0815 13.2 57.2495 16.464 57.2495 21.84C57.2495 27.216 54.0815 30.448 49.9215 30.448C47.3615 30.448 45.7935 29.296 44.8975 27.984H44.8335V35.664H41.6975V13.68H44.8335V15.6H44.8975C45.7935 14.448 47.3615 13.2 49.9215 13.2ZM49.4095 27.856C52.4815 27.856 53.9535 25.04 53.9535 21.84C53.9535 18.64 52.4815 15.824 49.4095 15.824C46.5935 15.824 44.8655 18.128 44.8655 21.84C44.8655 25.52 46.5935 27.856 49.4095 27.856ZM62.7093 30H59.2213V26.512H62.7093V30Z" fill="white"/>
</svg>
